<mxfile host="Electron" agent="Mozilla/5.0 (Windows NT 10.0; Win64; x64) AppleWebKit/537.36 (KHTML, like Gecko) draw.io/26.1.1 Chrome/132.0.6834.210 Electron/34.3.3 Safari/537.36" version="26.1.1">
  <diagram name="Página-1" id="BI1HUnCffNlerb2DD-iI">
    <mxGraphModel dx="2514" dy="2162" grid="1" gridSize="10" guides="1" tooltips="1" connect="1" arrows="1" fold="1" page="1" pageScale="1" pageWidth="827" pageHeight="1169" math="0" shadow="0">
      <root>
        <mxCell id="0" />
        <mxCell id="1" parent="0" />
        <mxCell id="TC2d5Tbh_WdBV7jz2Du9-1" style="edgeStyle=orthogonalEdgeStyle;rounded=0;orthogonalLoop=1;jettySize=auto;html=1;entryX=0;entryY=0.5;entryDx=0;entryDy=0;endArrow=none;startFill=0;" parent="1" source="nG5iaDMmcHLQ2-XAhvxq-3" target="nG5iaDMmcHLQ2-XAhvxq-4" edge="1">
          <mxGeometry relative="1" as="geometry" />
        </mxCell>
        <mxCell id="TC2d5Tbh_WdBV7jz2Du9-31" style="shape=connector;rounded=0;orthogonalLoop=1;jettySize=auto;html=1;exitX=1;exitY=1;exitDx=0;exitDy=0;entryX=0;entryY=0.5;entryDx=0;entryDy=0;strokeColor=default;align=center;verticalAlign=middle;fontFamily=Helvetica;fontSize=11;fontColor=default;labelBackgroundColor=default;startFill=0;endArrow=none;" parent="1" source="nG5iaDMmcHLQ2-XAhvxq-3" target="TC2d5Tbh_WdBV7jz2Du9-30" edge="1">
          <mxGeometry relative="1" as="geometry" />
        </mxCell>
        <mxCell id="nG5iaDMmcHLQ2-XAhvxq-3" value="cliente" style="whiteSpace=wrap;html=1;align=center;" parent="1" vertex="1">
          <mxGeometry x="110" y="100" width="100" height="40" as="geometry" />
        </mxCell>
        <mxCell id="nG5iaDMmcHLQ2-XAhvxq-4" value="&lt;u&gt;id_cliente&lt;/u&gt;" style="ellipse;whiteSpace=wrap;html=1;align=center;" parent="1" vertex="1">
          <mxGeometry x="240" y="100" width="100" height="40" as="geometry" />
        </mxCell>
        <mxCell id="TC2d5Tbh_WdBV7jz2Du9-7" style="edgeStyle=orthogonalEdgeStyle;shape=connector;rounded=0;orthogonalLoop=1;jettySize=auto;html=1;entryX=0.5;entryY=1;entryDx=0;entryDy=0;strokeColor=default;align=center;verticalAlign=middle;fontFamily=Helvetica;fontSize=11;fontColor=default;labelBackgroundColor=default;startFill=0;endArrow=none;" parent="1" source="nG5iaDMmcHLQ2-XAhvxq-5" target="nG5iaDMmcHLQ2-XAhvxq-3" edge="1">
          <mxGeometry relative="1" as="geometry" />
        </mxCell>
        <mxCell id="nG5iaDMmcHLQ2-XAhvxq-5" value="nome" style="ellipse;whiteSpace=wrap;html=1;align=center;" parent="1" vertex="1">
          <mxGeometry x="110" y="160" width="100" height="40" as="geometry" />
        </mxCell>
        <mxCell id="nG5iaDMmcHLQ2-XAhvxq-11" style="edgeStyle=orthogonalEdgeStyle;rounded=0;orthogonalLoop=1;jettySize=auto;html=1;entryX=0;entryY=0.5;entryDx=0;entryDy=0;endArrow=none;startFill=0;" parent="1" source="nG5iaDMmcHLQ2-XAhvxq-6" target="nG5iaDMmcHLQ2-XAhvxq-5" edge="1">
          <mxGeometry relative="1" as="geometry" />
        </mxCell>
        <mxCell id="nG5iaDMmcHLQ2-XAhvxq-6" value="nome_meio" style="ellipse;whiteSpace=wrap;html=1;align=center;" parent="1" vertex="1">
          <mxGeometry x="40" y="230" width="100" height="40" as="geometry" />
        </mxCell>
        <mxCell id="nG5iaDMmcHLQ2-XAhvxq-12" style="edgeStyle=orthogonalEdgeStyle;shape=connector;rounded=0;orthogonalLoop=1;jettySize=auto;html=1;entryX=1;entryY=0.5;entryDx=0;entryDy=0;strokeColor=default;align=center;verticalAlign=middle;fontFamily=Helvetica;fontSize=11;fontColor=default;labelBackgroundColor=default;startFill=0;endArrow=none;" parent="1" source="nG5iaDMmcHLQ2-XAhvxq-7" target="nG5iaDMmcHLQ2-XAhvxq-5" edge="1">
          <mxGeometry relative="1" as="geometry" />
        </mxCell>
        <mxCell id="nG5iaDMmcHLQ2-XAhvxq-7" value="nome_fim" style="ellipse;whiteSpace=wrap;html=1;align=center;" parent="1" vertex="1">
          <mxGeometry x="180" y="230" width="100" height="40" as="geometry" />
        </mxCell>
        <mxCell id="TC2d5Tbh_WdBV7jz2Du9-5" style="edgeStyle=orthogonalEdgeStyle;shape=connector;rounded=0;orthogonalLoop=1;jettySize=auto;html=1;entryX=0.5;entryY=1;entryDx=0;entryDy=0;strokeColor=default;align=center;verticalAlign=middle;fontFamily=Helvetica;fontSize=11;fontColor=default;labelBackgroundColor=default;startFill=0;endArrow=none;exitX=0.5;exitY=0;exitDx=0;exitDy=0;" parent="1" source="TC2d5Tbh_WdBV7jz2Du9-49" target="TC2d5Tbh_WdBV7jz2Du9-4" edge="1">
          <mxGeometry relative="1" as="geometry">
            <mxPoint x="480" y="-14" as="sourcePoint" />
          </mxGeometry>
        </mxCell>
        <mxCell id="TC2d5Tbh_WdBV7jz2Du9-15" style="edgeStyle=orthogonalEdgeStyle;shape=connector;rounded=0;orthogonalLoop=1;jettySize=auto;html=1;strokeColor=default;align=center;verticalAlign=middle;fontFamily=Helvetica;fontSize=11;fontColor=default;labelBackgroundColor=default;startFill=0;endArrow=none;entryX=0.5;entryY=0;entryDx=0;entryDy=0;" parent="1" source="TC2d5Tbh_WdBV7jz2Du9-22" target="TC2d5Tbh_WdBV7jz2Du9-30" edge="1">
          <mxGeometry relative="1" as="geometry">
            <mxPoint x="480" y="179.99999999999977" as="targetPoint" />
          </mxGeometry>
        </mxCell>
        <mxCell id="TC2d5Tbh_WdBV7jz2Du9-35" style="edgeStyle=orthogonalEdgeStyle;shape=connector;rounded=0;orthogonalLoop=1;jettySize=auto;html=1;exitX=0.25;exitY=0;exitDx=0;exitDy=0;strokeColor=default;align=center;verticalAlign=middle;fontFamily=Helvetica;fontSize=11;fontColor=default;labelBackgroundColor=default;startFill=0;endArrow=none;entryX=0;entryY=0.5;entryDx=0;entryDy=0;" parent="1" source="TC2d5Tbh_WdBV7jz2Du9-4" target="TC2d5Tbh_WdBV7jz2Du9-32" edge="1">
          <mxGeometry relative="1" as="geometry">
            <mxPoint x="450" y="-144" as="targetPoint" />
            <Array as="points">
              <mxPoint x="430" y="-64" />
            </Array>
          </mxGeometry>
        </mxCell>
        <mxCell id="TC2d5Tbh_WdBV7jz2Du9-39" style="edgeStyle=orthogonalEdgeStyle;shape=connector;rounded=0;orthogonalLoop=1;jettySize=auto;html=1;exitX=0.25;exitY=0;exitDx=0;exitDy=0;entryX=0;entryY=1;entryDx=0;entryDy=0;strokeColor=default;align=center;verticalAlign=middle;fontFamily=Helvetica;fontSize=11;fontColor=default;labelBackgroundColor=default;startFill=0;endArrow=none;" parent="1" source="TC2d5Tbh_WdBV7jz2Du9-4" target="TC2d5Tbh_WdBV7jz2Du9-32" edge="1">
          <mxGeometry relative="1" as="geometry" />
        </mxCell>
        <mxCell id="TC2d5Tbh_WdBV7jz2Du9-40" style="edgeStyle=orthogonalEdgeStyle;shape=connector;rounded=0;orthogonalLoop=1;jettySize=auto;html=1;exitX=0.75;exitY=0;exitDx=0;exitDy=0;entryX=1;entryY=1;entryDx=0;entryDy=0;strokeColor=default;align=center;verticalAlign=middle;fontFamily=Helvetica;fontSize=11;fontColor=default;labelBackgroundColor=default;startFill=0;endArrow=none;" parent="1" source="TC2d5Tbh_WdBV7jz2Du9-4" target="TC2d5Tbh_WdBV7jz2Du9-32" edge="1">
          <mxGeometry relative="1" as="geometry" />
        </mxCell>
        <mxCell id="TC2d5Tbh_WdBV7jz2Du9-4" value="cardápio" style="whiteSpace=wrap;html=1;align=center;fontFamily=Helvetica;fontSize=11;fontColor=default;labelBackgroundColor=default;" parent="1" vertex="1">
          <mxGeometry x="430" y="-64" width="100" height="40" as="geometry" />
        </mxCell>
        <mxCell id="TC2d5Tbh_WdBV7jz2Du9-8" value="endereço" style="ellipse;whiteSpace=wrap;html=1;align=center;fontFamily=Helvetica;fontSize=11;fontColor=default;labelBackgroundColor=default;" parent="1" vertex="1">
          <mxGeometry x="-20" y="100" width="100" height="40" as="geometry" />
        </mxCell>
        <mxCell id="TC2d5Tbh_WdBV7jz2Du9-9" style="edgeStyle=orthogonalEdgeStyle;shape=connector;rounded=0;orthogonalLoop=1;jettySize=auto;html=1;entryX=-0.032;entryY=0.519;entryDx=0;entryDy=0;entryPerimeter=0;strokeColor=default;align=center;verticalAlign=middle;fontFamily=Helvetica;fontSize=11;fontColor=default;labelBackgroundColor=default;startFill=0;endArrow=none;" parent="1" source="TC2d5Tbh_WdBV7jz2Du9-8" target="nG5iaDMmcHLQ2-XAhvxq-3" edge="1">
          <mxGeometry relative="1" as="geometry" />
        </mxCell>
        <mxCell id="TC2d5Tbh_WdBV7jz2Du9-33" style="shape=connector;rounded=0;orthogonalLoop=1;jettySize=auto;html=1;exitX=1;exitY=1;exitDx=0;exitDy=0;entryX=0;entryY=0.5;entryDx=0;entryDy=0;strokeColor=default;align=center;verticalAlign=middle;fontFamily=Helvetica;fontSize=11;fontColor=default;labelBackgroundColor=default;startFill=0;endArrow=none;" parent="1" source="TC2d5Tbh_WdBV7jz2Du9-17" target="TC2d5Tbh_WdBV7jz2Du9-32" edge="1">
          <mxGeometry relative="1" as="geometry" />
        </mxCell>
        <mxCell id="TC2d5Tbh_WdBV7jz2Du9-17" value="bebidas_alcóolicas" style="whiteSpace=wrap;html=1;align=center;fontFamily=Helvetica;fontSize=11;fontColor=default;labelBackgroundColor=default;" parent="1" vertex="1">
          <mxGeometry x="170" y="-233" width="100" height="40" as="geometry" />
        </mxCell>
        <mxCell id="TC2d5Tbh_WdBV7jz2Du9-18" value="&amp;nbsp;bebidas_não_alcóolicas" style="whiteSpace=wrap;html=1;align=center;fontFamily=Helvetica;fontSize=11;fontColor=default;labelBackgroundColor=default;" parent="1" vertex="1">
          <mxGeometry x="265" y="-314" width="130" height="40" as="geometry" />
        </mxCell>
        <mxCell id="TC2d5Tbh_WdBV7jz2Du9-133" style="shape=connector;rounded=0;orthogonalLoop=1;jettySize=auto;html=1;exitX=1;exitY=0;exitDx=0;exitDy=0;entryX=0;entryY=1;entryDx=0;entryDy=0;strokeColor=default;align=center;verticalAlign=middle;fontFamily=Helvetica;fontSize=11;fontColor=default;labelBackgroundColor=default;startFill=0;endArrow=none;" parent="1" source="TC2d5Tbh_WdBV7jz2Du9-19" target="TC2d5Tbh_WdBV7jz2Du9-132" edge="1">
          <mxGeometry relative="1" as="geometry" />
        </mxCell>
        <mxCell id="TC2d5Tbh_WdBV7jz2Du9-19" value="pizzas" style="whiteSpace=wrap;html=1;align=center;fontFamily=Helvetica;fontSize=11;fontColor=default;labelBackgroundColor=default;" parent="1" vertex="1">
          <mxGeometry x="576" y="-298" width="100" height="40" as="geometry" />
        </mxCell>
        <mxCell id="TC2d5Tbh_WdBV7jz2Du9-20" value="sobremesas" style="whiteSpace=wrap;html=1;align=center;fontFamily=Helvetica;fontSize=11;fontColor=default;labelBackgroundColor=default;" parent="1" vertex="1">
          <mxGeometry x="650" y="-201.5" width="100" height="40" as="geometry" />
        </mxCell>
        <mxCell id="TC2d5Tbh_WdBV7jz2Du9-93" style="shape=connector;rounded=0;orthogonalLoop=1;jettySize=auto;html=1;entryX=0;entryY=0.5;entryDx=0;entryDy=0;strokeColor=default;align=center;verticalAlign=middle;fontFamily=Helvetica;fontSize=11;fontColor=default;labelBackgroundColor=default;startFill=0;endArrow=none;exitX=1;exitY=0.5;exitDx=0;exitDy=0;" parent="1" source="TC2d5Tbh_WdBV7jz2Du9-98" target="TC2d5Tbh_WdBV7jz2Du9-92" edge="1">
          <mxGeometry relative="1" as="geometry">
            <mxPoint x="718" y="189.99999999999977" as="sourcePoint" />
          </mxGeometry>
        </mxCell>
        <mxCell id="TC2d5Tbh_WdBV7jz2Du9-99" style="shape=connector;rounded=0;orthogonalLoop=1;jettySize=auto;html=1;exitX=1;exitY=1;exitDx=0;exitDy=0;entryX=0;entryY=0.5;entryDx=0;entryDy=0;strokeColor=default;align=center;verticalAlign=middle;fontFamily=Helvetica;fontSize=11;fontColor=default;labelBackgroundColor=default;startFill=0;endArrow=none;" parent="1" source="TC2d5Tbh_WdBV7jz2Du9-22" target="TC2d5Tbh_WdBV7jz2Du9-98" edge="1">
          <mxGeometry relative="1" as="geometry" />
        </mxCell>
        <mxCell id="TC2d5Tbh_WdBV7jz2Du9-30" value="fazer_pedido" style="shape=rhombus;perimeter=rhombusPerimeter;whiteSpace=wrap;html=1;align=center;fontFamily=Helvetica;fontSize=11;fontColor=default;labelBackgroundColor=default;" parent="1" vertex="1">
          <mxGeometry x="420" y="169.99999999999977" width="120" height="60" as="geometry" />
        </mxCell>
        <mxCell id="TC2d5Tbh_WdBV7jz2Du9-36" style="shape=connector;rounded=0;orthogonalLoop=1;jettySize=auto;html=1;exitX=0;exitY=0;exitDx=0;exitDy=0;entryX=1;entryY=1;entryDx=0;entryDy=0;strokeColor=default;align=center;verticalAlign=middle;fontFamily=Helvetica;fontSize=11;fontColor=default;labelBackgroundColor=default;startFill=0;endArrow=none;" parent="1" source="TC2d5Tbh_WdBV7jz2Du9-32" target="TC2d5Tbh_WdBV7jz2Du9-18" edge="1">
          <mxGeometry relative="1" as="geometry" />
        </mxCell>
        <mxCell id="TC2d5Tbh_WdBV7jz2Du9-37" style="shape=connector;rounded=0;orthogonalLoop=1;jettySize=auto;html=1;exitX=1;exitY=0;exitDx=0;exitDy=0;entryX=0;entryY=1;entryDx=0;entryDy=0;strokeColor=default;align=center;verticalAlign=middle;fontFamily=Helvetica;fontSize=11;fontColor=default;labelBackgroundColor=default;startFill=0;endArrow=none;" parent="1" source="TC2d5Tbh_WdBV7jz2Du9-32" target="TC2d5Tbh_WdBV7jz2Du9-19" edge="1">
          <mxGeometry relative="1" as="geometry" />
        </mxCell>
        <mxCell id="TC2d5Tbh_WdBV7jz2Du9-45" style="edgeStyle=orthogonalEdgeStyle;shape=connector;rounded=0;orthogonalLoop=1;jettySize=auto;html=1;exitX=1;exitY=0.5;exitDx=0;exitDy=0;entryX=1;entryY=0;entryDx=0;entryDy=0;strokeColor=default;align=center;verticalAlign=middle;fontFamily=Helvetica;fontSize=11;fontColor=default;labelBackgroundColor=default;startFill=0;endArrow=none;" parent="1" source="TC2d5Tbh_WdBV7jz2Du9-32" target="TC2d5Tbh_WdBV7jz2Du9-4" edge="1">
          <mxGeometry relative="1" as="geometry">
            <Array as="points">
              <mxPoint x="530" y="-75" />
              <mxPoint x="530" y="-75" />
            </Array>
          </mxGeometry>
        </mxCell>
        <mxCell id="TC2d5Tbh_WdBV7jz2Du9-32" value="está_incluso" style="shape=rhombus;perimeter=rhombusPerimeter;whiteSpace=wrap;html=1;align=center;fontFamily=Helvetica;fontSize=11;fontColor=default;labelBackgroundColor=default;" parent="1" vertex="1">
          <mxGeometry x="430" y="-139" width="100" height="50" as="geometry" />
        </mxCell>
        <mxCell id="TC2d5Tbh_WdBV7jz2Du9-44" style="shape=connector;rounded=0;orthogonalLoop=1;jettySize=auto;html=1;exitX=1;exitY=0.5;exitDx=0;exitDy=0;entryX=0;entryY=1;entryDx=0;entryDy=0;strokeColor=default;align=center;verticalAlign=middle;fontFamily=Helvetica;fontSize=11;fontColor=default;labelBackgroundColor=default;startFill=0;endArrow=none;" parent="1" edge="1" target="TC2d5Tbh_WdBV7jz2Du9-20">
          <mxGeometry relative="1" as="geometry">
            <mxPoint x="530" y="-114.25999999999999" as="sourcePoint" />
            <mxPoint x="570" y="-114.25999999999999" as="targetPoint" />
          </mxGeometry>
        </mxCell>
        <mxCell id="TC2d5Tbh_WdBV7jz2Du9-53" style="shape=connector;rounded=0;orthogonalLoop=1;jettySize=auto;html=1;entryX=0;entryY=1;entryDx=0;entryDy=0;strokeColor=default;align=center;verticalAlign=middle;fontFamily=Helvetica;fontSize=11;fontColor=default;labelBackgroundColor=default;startFill=0;endArrow=none;exitX=1;exitY=0.5;exitDx=0;exitDy=0;" parent="1" source="TC2d5Tbh_WdBV7jz2Du9-22" target="TC2d5Tbh_WdBV7jz2Du9-52" edge="1">
          <mxGeometry relative="1" as="geometry" />
        </mxCell>
        <mxCell id="TC2d5Tbh_WdBV7jz2Du9-22" value="atendimento" style="whiteSpace=wrap;html=1;align=center;fontFamily=Helvetica;fontSize=11;fontColor=default;labelBackgroundColor=default;" parent="1" vertex="1">
          <mxGeometry x="430" y="90" width="100" height="40" as="geometry" />
        </mxCell>
        <mxCell id="TC2d5Tbh_WdBV7jz2Du9-48" value="" style="edgeStyle=orthogonalEdgeStyle;shape=connector;rounded=0;orthogonalLoop=1;jettySize=auto;html=1;entryX=0.5;entryY=1;entryDx=0;entryDy=0;strokeColor=default;align=center;verticalAlign=middle;fontFamily=Helvetica;fontSize=11;fontColor=default;labelBackgroundColor=default;startFill=0;endArrow=none;exitX=0.5;exitY=0;exitDx=0;exitDy=0;" parent="1" source="TC2d5Tbh_WdBV7jz2Du9-22" target="TC2d5Tbh_WdBV7jz2Du9-49" edge="1">
          <mxGeometry relative="1" as="geometry">
            <mxPoint x="480" y="-110" as="sourcePoint" />
            <mxPoint x="480" y="-170" as="targetPoint" />
          </mxGeometry>
        </mxCell>
        <mxCell id="TC2d5Tbh_WdBV7jz2Du9-49" value="&lt;font style=&quot;font-size: 9px;&quot;&gt;consultar_cardápio&lt;/font&gt;" style="shape=rhombus;perimeter=rhombusPerimeter;whiteSpace=wrap;html=1;align=center;fontFamily=Helvetica;fontSize=11;fontColor=default;labelBackgroundColor=default;" parent="1" vertex="1">
          <mxGeometry x="417.5" y="-5" width="125" height="50" as="geometry" />
        </mxCell>
        <mxCell id="TC2d5Tbh_WdBV7jz2Du9-69" style="shape=connector;rounded=0;orthogonalLoop=1;jettySize=auto;html=1;exitX=0.818;exitY=0.65;exitDx=0;exitDy=0;entryX=0;entryY=0.5;entryDx=0;entryDy=0;strokeColor=default;align=center;verticalAlign=middle;fontFamily=Helvetica;fontSize=11;fontColor=default;labelBackgroundColor=default;startFill=0;endArrow=none;exitPerimeter=0;" parent="1" source="TC2d5Tbh_WdBV7jz2Du9-52" target="TC2d5Tbh_WdBV7jz2Du9-66" edge="1">
          <mxGeometry relative="1" as="geometry" />
        </mxCell>
        <mxCell id="TC2d5Tbh_WdBV7jz2Du9-52" value="coletar_pedido" style="shape=rhombus;perimeter=rhombusPerimeter;whiteSpace=wrap;html=1;align=center;fontFamily=Helvetica;fontSize=11;fontColor=default;labelBackgroundColor=default;" parent="1" vertex="1">
          <mxGeometry x="631" y="-6" width="120" height="60" as="geometry" />
        </mxCell>
        <mxCell id="TC2d5Tbh_WdBV7jz2Du9-67" style="shape=connector;rounded=0;orthogonalLoop=1;jettySize=auto;html=1;entryX=0.5;entryY=0;entryDx=0;entryDy=0;strokeColor=default;align=center;verticalAlign=middle;fontFamily=Helvetica;fontSize=11;fontColor=default;labelBackgroundColor=default;startFill=0;endArrow=none;exitX=0.5;exitY=1;exitDx=0;exitDy=0;" parent="1" source="TC2d5Tbh_WdBV7jz2Du9-54" target="TC2d5Tbh_WdBV7jz2Du9-52" edge="1">
          <mxGeometry relative="1" as="geometry" />
        </mxCell>
        <mxCell id="TC2d5Tbh_WdBV7jz2Du9-54" value="aplicativo" style="whiteSpace=wrap;html=1;align=center;fontFamily=Helvetica;fontSize=11;fontColor=default;labelBackgroundColor=default;" parent="1" vertex="1">
          <mxGeometry x="641" y="-70" width="100" height="40" as="geometry" />
        </mxCell>
        <mxCell id="TC2d5Tbh_WdBV7jz2Du9-56" value="pizza_doce" style="ellipse;whiteSpace=wrap;html=1;align=center;fontFamily=Helvetica;fontSize=11;fontColor=default;labelBackgroundColor=default;" parent="1" vertex="1">
          <mxGeometry x="781" y="-403" width="100" height="40" as="geometry" />
        </mxCell>
        <mxCell id="TC2d5Tbh_WdBV7jz2Du9-57" value="pizza_maluca" style="ellipse;whiteSpace=wrap;html=1;align=center;fontFamily=Helvetica;fontSize=11;fontColor=default;labelBackgroundColor=default;" parent="1" vertex="1">
          <mxGeometry x="841" y="-288.5" width="100" height="40" as="geometry" />
        </mxCell>
        <mxCell id="TC2d5Tbh_WdBV7jz2Du9-58" style="edgeStyle=orthogonalEdgeStyle;shape=connector;rounded=0;orthogonalLoop=1;jettySize=auto;html=1;strokeColor=default;align=center;verticalAlign=middle;fontFamily=Helvetica;fontSize=11;fontColor=default;labelBackgroundColor=default;startFill=0;endArrow=none;entryX=0.5;entryY=0;entryDx=0;entryDy=0;exitX=0.5;exitY=1;exitDx=0;exitDy=0;" parent="1" source="TC2d5Tbh_WdBV7jz2Du9-127" edge="1">
          <mxGeometry relative="1" as="geometry">
            <mxPoint x="626" y="-393" as="sourcePoint" />
            <mxPoint x="626" y="-371.9999999999998" as="targetPoint" />
          </mxGeometry>
        </mxCell>
        <mxCell id="TC2d5Tbh_WdBV7jz2Du9-64" style="edgeStyle=orthogonalEdgeStyle;shape=connector;rounded=0;orthogonalLoop=1;jettySize=auto;html=1;entryX=0.5;entryY=0;entryDx=0;entryDy=0;strokeColor=default;align=center;verticalAlign=middle;fontFamily=Helvetica;fontSize=11;fontColor=default;labelBackgroundColor=default;startFill=0;endArrow=none;" parent="1" source="TC2d5Tbh_WdBV7jz2Du9-61" target="TC2d5Tbh_WdBV7jz2Du9-18" edge="1">
          <mxGeometry relative="1" as="geometry" />
        </mxCell>
        <mxCell id="TC2d5Tbh_WdBV7jz2Du9-121" style="shape=connector;rounded=0;orthogonalLoop=1;jettySize=auto;html=1;exitX=0;exitY=0;exitDx=0;exitDy=0;entryX=0.5;entryY=1;entryDx=0;entryDy=0;strokeColor=default;align=center;verticalAlign=middle;fontFamily=Helvetica;fontSize=11;fontColor=default;labelBackgroundColor=default;startFill=0;endArrow=none;" parent="1" source="TC2d5Tbh_WdBV7jz2Du9-61" target="TC2d5Tbh_WdBV7jz2Du9-120" edge="1">
          <mxGeometry relative="1" as="geometry" />
        </mxCell>
        <mxCell id="TC2d5Tbh_WdBV7jz2Du9-61" value="refrigerante" style="ellipse;whiteSpace=wrap;html=1;align=center;fontFamily=Helvetica;fontSize=11;fontColor=default;labelBackgroundColor=default;" parent="1" vertex="1">
          <mxGeometry x="280" y="-410" width="100" height="40" as="geometry" />
        </mxCell>
        <mxCell id="TC2d5Tbh_WdBV7jz2Du9-63" style="shape=connector;rounded=0;orthogonalLoop=1;jettySize=auto;html=1;exitX=1;exitY=1;exitDx=0;exitDy=0;entryX=0;entryY=0;entryDx=0;entryDy=0;strokeColor=default;align=center;verticalAlign=middle;fontFamily=Helvetica;fontSize=11;fontColor=default;labelBackgroundColor=default;startFill=0;endArrow=none;" parent="1" source="TC2d5Tbh_WdBV7jz2Du9-62" target="TC2d5Tbh_WdBV7jz2Du9-18" edge="1">
          <mxGeometry relative="1" as="geometry" />
        </mxCell>
        <mxCell id="TC2d5Tbh_WdBV7jz2Du9-119" style="edgeStyle=orthogonalEdgeStyle;shape=connector;rounded=0;orthogonalLoop=1;jettySize=auto;html=1;exitX=0;exitY=1;exitDx=0;exitDy=0;entryX=1;entryY=0;entryDx=0;entryDy=0;strokeColor=default;align=center;verticalAlign=middle;fontFamily=Helvetica;fontSize=11;fontColor=default;labelBackgroundColor=default;startFill=0;endArrow=none;" parent="1" source="TC2d5Tbh_WdBV7jz2Du9-62" target="TC2d5Tbh_WdBV7jz2Du9-118" edge="1">
          <mxGeometry relative="1" as="geometry" />
        </mxCell>
        <mxCell id="TC2d5Tbh_WdBV7jz2Du9-62" value="suco" style="ellipse;whiteSpace=wrap;html=1;align=center;fontFamily=Helvetica;fontSize=11;fontColor=default;labelBackgroundColor=default;" parent="1" vertex="1">
          <mxGeometry x="135" y="-394" width="100" height="40" as="geometry" />
        </mxCell>
        <mxCell id="TC2d5Tbh_WdBV7jz2Du9-68" style="shape=connector;rounded=0;orthogonalLoop=1;jettySize=auto;html=1;strokeColor=default;align=center;verticalAlign=middle;fontFamily=Helvetica;fontSize=11;fontColor=default;labelBackgroundColor=default;startFill=0;endArrow=none;exitX=0;exitY=1;exitDx=0;exitDy=0;" parent="1" source="TC2d5Tbh_WdBV7jz2Du9-65" target="TC2d5Tbh_WdBV7jz2Du9-52" edge="1">
          <mxGeometry relative="1" as="geometry">
            <mxPoint x="781" as="sourcePoint" />
          </mxGeometry>
        </mxCell>
        <mxCell id="TC2d5Tbh_WdBV7jz2Du9-65" value="garçom" style="whiteSpace=wrap;html=1;align=center;fontFamily=Helvetica;fontSize=11;fontColor=default;labelBackgroundColor=default;" parent="1" vertex="1">
          <mxGeometry x="771" y="-51" width="100" height="40" as="geometry" />
        </mxCell>
        <mxCell id="TC2d5Tbh_WdBV7jz2Du9-66" value="&lt;font style=&quot;font-size: 9px;&quot;&gt;robô_auto_atendimento&lt;/font&gt;" style="whiteSpace=wrap;html=1;align=center;fontFamily=Helvetica;fontSize=11;fontColor=default;labelBackgroundColor=default;" parent="1" vertex="1">
          <mxGeometry x="781" y="24" width="100" height="40" as="geometry" />
        </mxCell>
        <mxCell id="TC2d5Tbh_WdBV7jz2Du9-72" style="edgeStyle=orthogonalEdgeStyle;shape=connector;rounded=0;orthogonalLoop=1;jettySize=auto;html=1;strokeColor=default;align=center;verticalAlign=middle;fontFamily=Helvetica;fontSize=11;fontColor=default;labelBackgroundColor=default;startFill=0;endArrow=none;entryX=0.5;entryY=1;entryDx=0;entryDy=0;exitX=0;exitY=0.5;exitDx=0;exitDy=0;" parent="1" source="TC2d5Tbh_WdBV7jz2Du9-71" target="TC2d5Tbh_WdBV7jz2Du9-20" edge="1">
          <mxGeometry relative="1" as="geometry">
            <mxPoint x="700" y="-157.5" as="targetPoint" />
            <Array as="points">
              <mxPoint x="700" y="-136.5" />
            </Array>
          </mxGeometry>
        </mxCell>
        <mxCell id="TC2d5Tbh_WdBV7jz2Du9-71" value="&lt;u&gt;id_sobremesa&lt;/u&gt;" style="ellipse;whiteSpace=wrap;html=1;align=center;fontFamily=Helvetica;fontSize=11;fontColor=default;labelBackgroundColor=default;" parent="1" vertex="1">
          <mxGeometry x="723" y="-156.5" width="100" height="40" as="geometry" />
        </mxCell>
        <mxCell id="TC2d5Tbh_WdBV7jz2Du9-74" style="edgeStyle=orthogonalEdgeStyle;shape=connector;rounded=0;orthogonalLoop=1;jettySize=auto;html=1;entryX=0.5;entryY=1;entryDx=0;entryDy=0;strokeColor=default;align=center;verticalAlign=middle;fontFamily=Helvetica;fontSize=11;fontColor=default;labelBackgroundColor=default;startFill=0;endArrow=none;exitX=1;exitY=0.5;exitDx=0;exitDy=0;" parent="1" source="TC2d5Tbh_WdBV7jz2Du9-73" target="TC2d5Tbh_WdBV7jz2Du9-17" edge="1">
          <mxGeometry relative="1" as="geometry" />
        </mxCell>
        <mxCell id="TC2d5Tbh_WdBV7jz2Du9-73" value="&lt;font style=&quot;font-size: 9px;&quot;&gt;&lt;u&gt;id_bebida_alcóolica&lt;/u&gt;&lt;/font&gt;" style="ellipse;whiteSpace=wrap;html=1;align=center;fontFamily=Helvetica;fontSize=11;fontColor=default;labelBackgroundColor=default;" parent="1" vertex="1">
          <mxGeometry x="105" y="-179" width="100" height="40" as="geometry" />
        </mxCell>
        <mxCell id="TC2d5Tbh_WdBV7jz2Du9-77" style="edgeStyle=orthogonalEdgeStyle;shape=connector;rounded=0;orthogonalLoop=1;jettySize=auto;html=1;entryX=0;entryY=0.5;entryDx=0;entryDy=0;strokeColor=default;align=center;verticalAlign=middle;fontFamily=Helvetica;fontSize=11;fontColor=default;labelBackgroundColor=default;startFill=0;endArrow=none;" parent="1" source="TC2d5Tbh_WdBV7jz2Du9-76" target="TC2d5Tbh_WdBV7jz2Du9-62" edge="1">
          <mxGeometry relative="1" as="geometry" />
        </mxCell>
        <mxCell id="TC2d5Tbh_WdBV7jz2Du9-76" value="&lt;u&gt;id_suco&lt;/u&gt;" style="ellipse;whiteSpace=wrap;html=1;align=center;fontFamily=Helvetica;fontSize=11;fontColor=default;labelBackgroundColor=default;" parent="1" vertex="1">
          <mxGeometry x="60" y="-434" width="100" height="40" as="geometry" />
        </mxCell>
        <mxCell id="TC2d5Tbh_WdBV7jz2Du9-79" style="shape=connector;rounded=0;orthogonalLoop=1;jettySize=auto;html=1;entryX=1;entryY=0;entryDx=0;entryDy=0;strokeColor=default;align=center;verticalAlign=middle;fontFamily=Helvetica;fontSize=11;fontColor=default;labelBackgroundColor=default;startFill=0;endArrow=none;" parent="1" source="TC2d5Tbh_WdBV7jz2Du9-78" target="TC2d5Tbh_WdBV7jz2Du9-61" edge="1">
          <mxGeometry relative="1" as="geometry" />
        </mxCell>
        <mxCell id="TC2d5Tbh_WdBV7jz2Du9-78" value="&lt;u&gt;id_refrigerante&lt;/u&gt;" style="ellipse;whiteSpace=wrap;html=1;align=center;fontFamily=Helvetica;fontSize=11;fontColor=default;labelBackgroundColor=default;" parent="1" vertex="1">
          <mxGeometry x="330" y="-460" width="100" height="40" as="geometry" />
        </mxCell>
        <mxCell id="TC2d5Tbh_WdBV7jz2Du9-80" value="&lt;u&gt;id_pizza_salgada&lt;/u&gt;" style="ellipse;whiteSpace=wrap;html=1;align=center;fontFamily=Helvetica;fontSize=11;fontColor=default;labelBackgroundColor=default;" parent="1" vertex="1">
          <mxGeometry x="576" y="-483" width="100" height="40" as="geometry" />
        </mxCell>
        <mxCell id="TC2d5Tbh_WdBV7jz2Du9-83" style="edgeStyle=orthogonalEdgeStyle;shape=connector;rounded=0;orthogonalLoop=1;jettySize=auto;html=1;entryX=1;entryY=0.5;entryDx=0;entryDy=0;strokeColor=default;align=center;verticalAlign=middle;fontFamily=Helvetica;fontSize=11;fontColor=default;labelBackgroundColor=default;startFill=0;endArrow=none;" parent="1" source="TC2d5Tbh_WdBV7jz2Du9-82" target="TC2d5Tbh_WdBV7jz2Du9-56" edge="1">
          <mxGeometry relative="1" as="geometry" />
        </mxCell>
        <mxCell id="TC2d5Tbh_WdBV7jz2Du9-82" value="&lt;u&gt;id_pizza_doce&lt;/u&gt;" style="ellipse;whiteSpace=wrap;html=1;align=center;fontFamily=Helvetica;fontSize=11;fontColor=default;labelBackgroundColor=default;" parent="1" vertex="1">
          <mxGeometry x="900" y="-423" width="100" height="40" as="geometry" />
        </mxCell>
        <mxCell id="TC2d5Tbh_WdBV7jz2Du9-97" style="shape=connector;rounded=0;orthogonalLoop=1;jettySize=auto;html=1;exitX=1;exitY=0.5;exitDx=0;exitDy=0;entryX=0;entryY=0.5;entryDx=0;entryDy=0;strokeColor=default;align=center;verticalAlign=middle;fontFamily=Helvetica;fontSize=11;fontColor=default;labelBackgroundColor=default;startFill=0;endArrow=none;" parent="1" source="TC2d5Tbh_WdBV7jz2Du9-92" edge="1">
          <mxGeometry relative="1" as="geometry">
            <mxPoint x="869.4999999999868" y="190" as="targetPoint" />
          </mxGeometry>
        </mxCell>
        <mxCell id="TC2d5Tbh_WdBV7jz2Du9-102" style="shape=connector;rounded=0;orthogonalLoop=1;jettySize=auto;html=1;exitX=0;exitY=1;exitDx=0;exitDy=0;entryX=0.5;entryY=0;entryDx=0;entryDy=0;strokeColor=default;align=center;verticalAlign=middle;fontFamily=Helvetica;fontSize=11;fontColor=default;labelBackgroundColor=default;startFill=0;endArrow=none;" parent="1" source="TC2d5Tbh_WdBV7jz2Du9-92" target="TC2d5Tbh_WdBV7jz2Du9-101" edge="1">
          <mxGeometry relative="1" as="geometry" />
        </mxCell>
        <mxCell id="TC2d5Tbh_WdBV7jz2Du9-109" style="shape=connector;rounded=0;orthogonalLoop=1;jettySize=auto;html=1;entryX=0;entryY=0;entryDx=0;entryDy=0;strokeColor=default;align=center;verticalAlign=middle;fontFamily=Helvetica;fontSize=11;fontColor=default;labelBackgroundColor=default;startFill=0;endArrow=none;exitX=0.5;exitY=1;exitDx=0;exitDy=0;" parent="1" source="TC2d5Tbh_WdBV7jz2Du9-92" target="TC2d5Tbh_WdBV7jz2Du9-108" edge="1">
          <mxGeometry relative="1" as="geometry" />
        </mxCell>
        <mxCell id="TC2d5Tbh_WdBV7jz2Du9-92" value="pedido" style="whiteSpace=wrap;html=1;align=center;fontFamily=Helvetica;fontSize=11;fontColor=default;labelBackgroundColor=default;" parent="1" vertex="1">
          <mxGeometry x="750" y="170" width="100" height="40" as="geometry" />
        </mxCell>
        <mxCell id="TC2d5Tbh_WdBV7jz2Du9-107" value="" style="edgeStyle=orthogonalEdgeStyle;shape=connector;rounded=0;orthogonalLoop=1;jettySize=auto;html=1;strokeColor=default;align=center;verticalAlign=middle;fontFamily=Helvetica;fontSize=11;fontColor=default;labelBackgroundColor=default;startFill=0;endArrow=none;" parent="1" source="TC2d5Tbh_WdBV7jz2Du9-96" target="TC2d5Tbh_WdBV7jz2Du9-92" edge="1">
          <mxGeometry relative="1" as="geometry" />
        </mxCell>
        <mxCell id="TC2d5Tbh_WdBV7jz2Du9-96" value="&lt;u&gt;id_pedido&lt;/u&gt;" style="ellipse;whiteSpace=wrap;html=1;align=center;fontFamily=Helvetica;fontSize=11;fontColor=default;labelBackgroundColor=default;" parent="1" vertex="1">
          <mxGeometry x="879" y="170" width="100" height="40" as="geometry" />
        </mxCell>
        <mxCell id="TC2d5Tbh_WdBV7jz2Du9-98" value="gerar_pedido" style="shape=rhombus;perimeter=rhombusPerimeter;whiteSpace=wrap;html=1;align=center;fontFamily=Helvetica;fontSize=11;fontColor=default;labelBackgroundColor=default;" parent="1" vertex="1">
          <mxGeometry x="600" y="160" width="120" height="60" as="geometry" />
        </mxCell>
        <mxCell id="TC2d5Tbh_WdBV7jz2Du9-104" style="edgeStyle=orthogonalEdgeStyle;shape=connector;rounded=0;orthogonalLoop=1;jettySize=auto;html=1;entryX=0.5;entryY=0;entryDx=0;entryDy=0;strokeColor=default;align=center;verticalAlign=middle;fontFamily=Helvetica;fontSize=11;fontColor=default;labelBackgroundColor=default;startFill=0;endArrow=none;" parent="1" source="TC2d5Tbh_WdBV7jz2Du9-101" target="TC2d5Tbh_WdBV7jz2Du9-103" edge="1">
          <mxGeometry relative="1" as="geometry" />
        </mxCell>
        <mxCell id="TC2d5Tbh_WdBV7jz2Du9-101" value="gerar_nf" style="shape=rhombus;perimeter=rhombusPerimeter;whiteSpace=wrap;html=1;align=center;fontFamily=Helvetica;fontSize=11;fontColor=default;labelBackgroundColor=default;" parent="1" vertex="1">
          <mxGeometry x="705" y="250" width="90" height="40" as="geometry" />
        </mxCell>
        <mxCell id="TC2d5Tbh_WdBV7jz2Du9-103" value="nota_fiscal" style="whiteSpace=wrap;html=1;align=center;fontFamily=Helvetica;fontSize=11;fontColor=default;labelBackgroundColor=default;" parent="1" vertex="1">
          <mxGeometry x="700" y="320" width="100" height="40" as="geometry" />
        </mxCell>
        <mxCell id="TC2d5Tbh_WdBV7jz2Du9-106" style="edgeStyle=orthogonalEdgeStyle;shape=connector;rounded=0;orthogonalLoop=1;jettySize=auto;html=1;entryX=0.5;entryY=0;entryDx=0;entryDy=0;strokeColor=default;align=center;verticalAlign=middle;fontFamily=Helvetica;fontSize=11;fontColor=default;labelBackgroundColor=default;startFill=0;endArrow=none;" parent="1" target="nG5iaDMmcHLQ2-XAhvxq-3" edge="1">
          <mxGeometry relative="1" as="geometry">
            <mxPoint x="160" y="77.00000000000023" as="sourcePoint" />
          </mxGeometry>
        </mxCell>
        <mxCell id="TC2d5Tbh_WdBV7jz2Du9-114" style="shape=connector;rounded=0;orthogonalLoop=1;jettySize=auto;html=1;entryX=0;entryY=1;entryDx=0;entryDy=0;strokeColor=default;align=center;verticalAlign=middle;fontFamily=Helvetica;fontSize=11;fontColor=default;labelBackgroundColor=default;startFill=0;endArrow=none;exitX=1;exitY=0;exitDx=0;exitDy=0;" parent="1" target="TC2d5Tbh_WdBV7jz2Du9-113" edge="1" source="TC2d5Tbh_WdBV7jz2Du9-108">
          <mxGeometry relative="1" as="geometry">
            <mxPoint x="950" y="250" as="sourcePoint" />
          </mxGeometry>
        </mxCell>
        <mxCell id="TC2d5Tbh_WdBV7jz2Du9-108" value="chamar_cozinha" style="shape=rhombus;perimeter=rhombusPerimeter;whiteSpace=wrap;html=1;align=center;fontFamily=Helvetica;fontSize=11;fontColor=default;labelBackgroundColor=default;" parent="1" vertex="1">
          <mxGeometry x="869" y="250" width="120" height="60" as="geometry" />
        </mxCell>
        <mxCell id="TC2d5Tbh_WdBV7jz2Du9-112" style="edgeStyle=orthogonalEdgeStyle;shape=connector;rounded=0;orthogonalLoop=1;jettySize=auto;html=1;strokeColor=default;align=center;verticalAlign=middle;fontFamily=Helvetica;fontSize=11;fontColor=default;labelBackgroundColor=default;startFill=0;endArrow=none;" parent="1" source="TC2d5Tbh_WdBV7jz2Du9-111" edge="1">
          <mxGeometry relative="1" as="geometry">
            <mxPoint x="160" y="80" as="targetPoint" />
          </mxGeometry>
        </mxCell>
        <mxCell id="TC2d5Tbh_WdBV7jz2Du9-111" value="telefones" style="ellipse;shape=doubleEllipse;margin=3;whiteSpace=wrap;html=1;align=center;fontFamily=Helvetica;fontSize=11;fontColor=default;labelBackgroundColor=default;" parent="1" vertex="1">
          <mxGeometry x="110" y="35" width="100" height="40" as="geometry" />
        </mxCell>
        <mxCell id="TC2d5Tbh_WdBV7jz2Du9-116" style="edgeStyle=orthogonalEdgeStyle;shape=connector;rounded=0;orthogonalLoop=1;jettySize=auto;html=1;entryX=0.5;entryY=1;entryDx=0;entryDy=0;strokeColor=default;align=center;verticalAlign=middle;fontFamily=Helvetica;fontSize=11;fontColor=default;labelBackgroundColor=default;startFill=0;endArrow=none;" parent="1" source="TC2d5Tbh_WdBV7jz2Du9-113" target="TC2d5Tbh_WdBV7jz2Du9-115" edge="1">
          <mxGeometry relative="1" as="geometry" />
        </mxCell>
        <mxCell id="TC2d5Tbh_WdBV7jz2Du9-113" value="cozinha" style="whiteSpace=wrap;html=1;align=center;fontFamily=Helvetica;fontSize=11;fontColor=default;labelBackgroundColor=default;" parent="1" vertex="1">
          <mxGeometry x="1060" y="64" width="100" height="40" as="geometry" />
        </mxCell>
        <mxCell id="TC2d5Tbh_WdBV7jz2Du9-115" value="fazer_pizza" style="ellipse;whiteSpace=wrap;html=1;align=center;fontFamily=Helvetica;fontSize=11;fontColor=default;labelBackgroundColor=default;" parent="1" vertex="1">
          <mxGeometry x="1060" y="4" width="100" height="40" as="geometry" />
        </mxCell>
        <mxCell id="TC2d5Tbh_WdBV7jz2Du9-117" value="&lt;font style=&quot;font-size: 9px;&quot;&gt;varificar_estoque&lt;/font&gt;" style="shape=rhombus;perimeter=rhombusPerimeter;whiteSpace=wrap;html=1;align=center;fontFamily=Helvetica;fontSize=11;fontColor=default;labelBackgroundColor=default;" parent="1" vertex="1">
          <mxGeometry x="1160" y="-56" width="120" height="60" as="geometry" />
        </mxCell>
        <mxCell id="TC2d5Tbh_WdBV7jz2Du9-118" value="suco_sabores" style="ellipse;whiteSpace=wrap;html=1;align=center;fontFamily=Helvetica;fontSize=11;fontColor=default;labelBackgroundColor=default;" parent="1" vertex="1">
          <mxGeometry x="40" y="-354" width="100" height="40" as="geometry" />
        </mxCell>
        <mxCell id="TC2d5Tbh_WdBV7jz2Du9-120" value="Attribute" style="ellipse;whiteSpace=wrap;html=1;align=center;fontFamily=Helvetica;fontSize=11;fontColor=default;labelBackgroundColor=default;" parent="1" vertex="1">
          <mxGeometry x="220" y="-460" width="100" height="40" as="geometry" />
        </mxCell>
        <mxCell id="TC2d5Tbh_WdBV7jz2Du9-126" style="edgeStyle=orthogonalEdgeStyle;shape=connector;rounded=0;orthogonalLoop=1;jettySize=auto;html=1;entryX=0.5;entryY=0;entryDx=0;entryDy=0;strokeColor=default;align=center;verticalAlign=middle;fontFamily=Helvetica;fontSize=11;fontColor=default;labelBackgroundColor=default;startFill=0;endArrow=none;" parent="1" source="TC2d5Tbh_WdBV7jz2Du9-125" target="TC2d5Tbh_WdBV7jz2Du9-19" edge="1">
          <mxGeometry relative="1" as="geometry" />
        </mxCell>
        <mxCell id="TC2d5Tbh_WdBV7jz2Du9-125" value="tem_salgada" style="shape=rhombus;perimeter=rhombusPerimeter;whiteSpace=wrap;html=1;align=center;fontFamily=Helvetica;fontSize=11;fontColor=default;labelBackgroundColor=default;" parent="1" vertex="1">
          <mxGeometry x="576" y="-373" width="100" height="45" as="geometry" />
        </mxCell>
        <mxCell id="TC2d5Tbh_WdBV7jz2Du9-128" value="" style="edgeStyle=orthogonalEdgeStyle;shape=connector;rounded=0;orthogonalLoop=1;jettySize=auto;html=1;strokeColor=default;align=center;verticalAlign=middle;fontFamily=Helvetica;fontSize=11;fontColor=default;labelBackgroundColor=default;startFill=0;endArrow=none;" parent="1" source="TC2d5Tbh_WdBV7jz2Du9-127" target="TC2d5Tbh_WdBV7jz2Du9-80" edge="1">
          <mxGeometry relative="1" as="geometry" />
        </mxCell>
        <mxCell id="TC2d5Tbh_WdBV7jz2Du9-127" value="pizza_salgada" style="whiteSpace=wrap;html=1;align=center;fontFamily=Helvetica;fontSize=11;fontColor=default;labelBackgroundColor=default;" parent="1" vertex="1">
          <mxGeometry x="576" y="-433" width="100" height="40" as="geometry" />
        </mxCell>
        <mxCell id="TC2d5Tbh_WdBV7jz2Du9-130" value="sabor_pizza" style="ellipse;whiteSpace=wrap;html=1;align=center;fontFamily=Helvetica;fontSize=11;fontColor=default;labelBackgroundColor=default;" parent="1" vertex="1">
          <mxGeometry x="691" y="-473" width="100" height="40" as="geometry" />
        </mxCell>
        <mxCell id="TC2d5Tbh_WdBV7jz2Du9-131" style="shape=connector;rounded=0;orthogonalLoop=1;jettySize=auto;html=1;entryX=0.29;entryY=0.958;entryDx=0;entryDy=0;entryPerimeter=0;strokeColor=default;align=center;verticalAlign=middle;fontFamily=Helvetica;fontSize=11;fontColor=default;labelBackgroundColor=default;startFill=0;endArrow=none;exitX=1;exitY=0.5;exitDx=0;exitDy=0;" parent="1" source="TC2d5Tbh_WdBV7jz2Du9-127" target="TC2d5Tbh_WdBV7jz2Du9-130" edge="1">
          <mxGeometry relative="1" as="geometry" />
        </mxCell>
        <mxCell id="TC2d5Tbh_WdBV7jz2Du9-132" value="tem_doce" style="shape=rhombus;perimeter=rhombusPerimeter;whiteSpace=wrap;html=1;align=center;fontFamily=Helvetica;fontSize=11;fontColor=default;labelBackgroundColor=default;" parent="1" vertex="1">
          <mxGeometry x="691" y="-363" width="100" height="45" as="geometry" />
        </mxCell>
        <mxCell id="TC2d5Tbh_WdBV7jz2Du9-134" style="shape=connector;rounded=0;orthogonalLoop=1;jettySize=auto;html=1;exitX=1;exitY=0;exitDx=0;exitDy=0;entryX=0.078;entryY=0.764;entryDx=0;entryDy=0;entryPerimeter=0;strokeColor=default;align=center;verticalAlign=middle;fontFamily=Helvetica;fontSize=11;fontColor=default;labelBackgroundColor=default;startFill=0;endArrow=none;" parent="1" source="TC2d5Tbh_WdBV7jz2Du9-132" target="TC2d5Tbh_WdBV7jz2Du9-56" edge="1">
          <mxGeometry relative="1" as="geometry" />
        </mxCell>
        <mxCell id="TC2d5Tbh_WdBV7jz2Du9-136" style="edgeStyle=orthogonalEdgeStyle;shape=connector;rounded=0;orthogonalLoop=1;jettySize=auto;html=1;entryX=0;entryY=0.5;entryDx=0;entryDy=0;strokeColor=default;align=center;verticalAlign=middle;fontFamily=Helvetica;fontSize=11;fontColor=default;labelBackgroundColor=default;startFill=0;endArrow=none;" parent="1" source="TC2d5Tbh_WdBV7jz2Du9-135" target="TC2d5Tbh_WdBV7jz2Du9-57" edge="1">
          <mxGeometry relative="1" as="geometry" />
        </mxCell>
        <mxCell id="TC2d5Tbh_WdBV7jz2Du9-137" style="shape=connector;rounded=0;orthogonalLoop=1;jettySize=auto;html=1;entryX=1;entryY=0.5;entryDx=0;entryDy=0;strokeColor=default;align=center;verticalAlign=middle;fontFamily=Helvetica;fontSize=11;fontColor=default;labelBackgroundColor=default;startFill=0;endArrow=none;" parent="1" source="TC2d5Tbh_WdBV7jz2Du9-135" target="TC2d5Tbh_WdBV7jz2Du9-19" edge="1">
          <mxGeometry relative="1" as="geometry" />
        </mxCell>
        <mxCell id="TC2d5Tbh_WdBV7jz2Du9-135" value="&lt;font style=&quot;font-size: 8px;&quot;&gt;tem_pizza_maluca&lt;/font&gt;" style="shape=rhombus;perimeter=rhombusPerimeter;whiteSpace=wrap;html=1;align=center;fontFamily=Helvetica;fontSize=11;fontColor=default;labelBackgroundColor=default;" parent="1" vertex="1">
          <mxGeometry x="704" y="-298" width="110" height="51" as="geometry" />
        </mxCell>
      </root>
    </mxGraphModel>
  </diagram>
</mxfile>
